<svg width="502" height="158" viewBox="0 0 502 158" fill="none" xmlns="http://www.w3.org/2000/svg">
<path d="M112.041 155.01L98.8281 114.941H41.7871L28.5742 155.01H0L55 0H86.2598L141.26 155.01H112.041ZM69.9316 27.3926L41.7871 114.941H98.8281L70.6836 27.3926H69.9316Z" fill="white"/>
<path d="M176.657 42.8613L141.26 155.01H112.041L66.0996 0H86.2598L127.24 117.412H128.1L164.948 0H189.441L220.593 117.412H221.452L248.308 0H277.097L235.525 155.01H209.421L177.732 42.8613H176.657Z" fill="white"/>
<path d="M323.062 59.5117C308.023 59.5117 297.174 71.0059 296.1 86.9043H349.273C348.736 70.791 338.424 59.5117 323.062 59.5117ZM349.381 120.957H374.41C370.973 142.441 350.992 157.266 324.029 157.266C289.869 157.266 269.244 134.814 269.244 98.5059C269.244 62.5195 290.084 38.7793 322.955 38.7793C355.289 38.7793 375.484 61.2305 375.484 95.8203V104.521H295.885V106.133C295.885 124.395 307.057 136.641 324.566 136.641C337.027 136.641 346.48 130.41 349.381 120.957Z" fill="white"/>
<path d="M454.908 156.836C438.15 156.836 425.367 148.779 418.707 135.566H418.17V155.01H391.959V0H418.707V60.6934H419.352C425.797 47.373 438.795 39.209 454.908 39.209C483.59 39.209 501.852 61.6602 501.852 98.0762C501.852 134.492 483.697 156.836 454.908 156.836ZM446.637 61.2305C430.094 61.2305 418.6 75.9473 418.6 98.0762C418.6 120.42 430.094 134.922 446.637 134.922C463.824 134.922 474.459 120.742 474.459 98.0762C474.459 75.5176 463.717 61.2305 446.637 61.2305Z" fill="white"/>
</svg>
