<svg width="129" height="50" viewBox="0 0 129 50" fill="none" xmlns="http://www.w3.org/2000/svg">
<g clip-path="url(#clip0_75_97)">
<rect x="89.4844" width="40.8248" height="40.8248" rx="8" transform="rotate(15 89.4844 0)" fill="#19191A"/>
<path fill-rule="evenodd" clip-rule="evenodd" d="M90.8909 32.3266C90.1794 29.8271 90.3425 26.9633 91.7194 24.724C93.0027 22.6734 95.0462 21.1686 97.0362 19.8633C99.2514 18.3618 101.647 16.994 103.335 14.881C104.569 13.3344 104.895 10.1365 104.956 7.79102C104.985 6.71376 106.251 6.09231 107.008 6.85876C107.385 7.2397 107.746 7.63842 108.024 8.01349C109.54 10.0544 110.267 11.4057 110.562 14.0076C110.858 16.6095 110.014 21.3136 108.137 23.1624C106.014 25.2872 103.747 24.7827 102.451 27.685C101.98 28.7988 102.03 30.2232 102.978 31.0331C103.298 31.2898 103.679 31.4775 104.082 31.5854C105.623 31.9556 105.835 31.5788 107.063 30.5396C108.289 29.5433 108.66 27.2035 108.756 25.4316C108.788 24.8489 109.626 24.6038 109.877 25.1305C110.855 27.0779 112.12 28.826 112.753 31.3745C113.471 34.2658 112.392 37.4487 109.829 38.9666C109.259 39.3043 108.659 39.593 108.045 39.8306C103.949 41.4266 99.0953 40.8531 95.4931 38.3486C93.2905 36.9032 91.6132 34.7863 90.8909 32.3266Z" fill="#3E3E43"/>
<path fill-rule="evenodd" clip-rule="evenodd" d="M93.8902 31.3426C93.3794 29.5482 93.4965 27.4924 94.485 25.8849C95.4062 24.4129 96.8731 23.3326 98.3017 22.3956C99.8919 21.3177 101.611 20.3358 102.823 18.8189C103.658 17.7727 104.12 15.8037 104.365 14.2708C104.475 13.5865 105.476 13.3272 106.003 13.7772C107.443 14.992 108.65 16.8502 108.862 18.7181C109.074 20.5859 108.458 22.5386 107.111 23.8658C105.587 25.3911 103.119 25.927 102.189 28.0106C101.851 28.8101 101.887 29.8326 102.567 30.414C102.797 30.5983 103.071 30.7331 103.36 30.8105C104.466 31.0763 105.67 30.6314 106.551 29.8854C107.324 29.2572 107.871 28.0421 108.219 27.0085C108.448 26.3288 109.437 26.1038 109.746 26.7513C110.797 28.8437 111.137 31.851 109.845 33.8988C108.999 35.2067 107.657 36.167 106.205 36.7295C103.264 37.8752 99.7799 37.4634 97.1939 35.6655C95.6128 34.628 94.4087 33.1083 93.8902 31.3426Z" fill="white"/>
</g>
<path d="M6.96318 16.9835L6.0853 14.3898H2.42747L1.54959 16.9835H0L3.46496 7.38672H5.07441L8.53937 16.9835H6.96318ZM4.23643 8.98286L2.80655 13.1927H5.70621L4.27634 8.98286H4.23643Z" fill="#AFAFB6"/>
<path d="M15.0737 9.9871V16.9835H13.697V15.7997H13.6638C13.2781 16.6377 12.5664 17.1099 11.4957 17.1099C9.97271 17.1099 9.04162 16.119 9.04162 14.5162V9.9871H10.4782V14.2368C10.4782 15.3009 10.9836 15.8729 11.9745 15.8729C13.012 15.8729 13.6372 15.1546 13.6372 14.0639V9.9871H15.0737Z" fill="#AFAFB6"/>
<path d="M19.3402 15.8197C20.4642 15.8197 21.2024 14.9085 21.2024 13.4654C21.2024 12.0288 20.4642 11.0845 19.3402 11.0845C18.2362 11.0845 17.5179 12.0089 17.5179 13.4654C17.5179 14.9285 18.2362 15.8197 19.3402 15.8197ZM19.3535 19.6172C17.7042 19.6172 16.4805 18.7393 16.3009 17.5289H17.7441C17.9502 18.1141 18.5887 18.4999 19.4067 18.4999C20.5307 18.4999 21.1957 17.8614 21.1957 16.9037V15.7532H21.1691C20.7767 16.5113 19.9521 17.0101 18.9545 17.0101C17.1987 17.0101 16.0482 15.6401 16.0482 13.4587C16.0482 11.2574 17.1921 9.87404 18.9877 9.87404C19.9787 9.87404 20.79 10.3728 21.2157 11.1842H21.2423V9.9871H22.6389V16.8572C22.6389 18.5265 21.3487 19.6172 19.3535 19.6172Z" fill="#AFAFB6"/>
<path d="M29.9248 9.9871V16.9835H28.5481V15.7997H28.5148C28.1291 16.6377 27.4175 17.1099 26.3468 17.1099C24.8238 17.1099 23.8927 16.119 23.8927 14.5162V9.9871H25.3292V14.2368C25.3292 15.3009 25.8347 15.8729 26.8256 15.8729C27.8631 15.8729 28.4882 15.1546 28.4882 14.0639V9.9871H29.9248Z" fill="#AFAFB6"/>
<path d="M31.0854 11.969C31.0854 10.7187 32.1894 9.86074 33.8255 9.86074C35.3817 9.86074 36.4724 10.732 36.519 11.9756H35.1689C35.1024 11.3438 34.5903 10.9514 33.7856 10.9514C33.0075 10.9514 32.4887 11.3305 32.4887 11.8825C32.4887 12.3148 32.8345 12.6074 33.5595 12.787L34.7366 13.0597C36.1465 13.3989 36.6786 13.9309 36.6786 14.9618C36.6786 16.2387 35.4881 17.1165 33.7723 17.1165C32.1163 17.1165 31.0189 16.2586 30.9059 14.9751H32.3291C32.4422 15.6468 32.9609 16.0192 33.8388 16.0192C34.7034 16.0192 35.2354 15.6601 35.2354 15.0948C35.2354 14.6492 34.9694 14.4031 34.2378 14.2169L32.9875 13.911C31.7239 13.605 31.0854 12.9466 31.0854 11.969Z" fill="#AFAFB6"/>
<path d="M38.0787 8.3311H39.5219V9.9871H40.852V11.1244H39.5219V14.9817C39.5219 15.5869 39.7879 15.8596 40.3731 15.8596C40.5194 15.8596 40.7522 15.8463 40.8453 15.8263V16.9636C40.6857 17.0035 40.3665 17.0301 40.0473 17.0301C38.6307 17.0301 38.0787 16.4914 38.0787 15.1413V11.1244H37.0611V9.9871H38.0787V8.3311Z" fill="#AFAFB6"/>
<path d="M44.2406 15.966C45.2448 15.966 46.0296 15.2743 46.0296 14.3632V13.8112L44.3071 13.9176C43.4492 13.9775 42.9637 14.3565 42.9637 14.9551C42.9637 15.567 43.4691 15.966 44.2406 15.966ZM43.8415 17.1032C42.4715 17.1032 41.5138 16.252 41.5138 14.995C41.5138 13.7713 42.4516 13.0198 44.1142 12.9267L46.0296 12.8136V12.2749C46.0296 11.4968 45.5042 11.0312 44.6263 11.0312C43.795 11.0312 43.2762 11.4303 43.1499 12.0554H41.7932C41.873 10.7918 42.9504 9.86074 44.6795 9.86074C46.3754 9.86074 47.4595 10.7586 47.4595 12.1618V16.9835H46.0828V15.833H46.0495C45.6439 16.6111 44.7593 17.1032 43.8415 17.1032Z" fill="#AFAFB6"/>
<path d="M48.5935 11.969C48.5935 10.7187 49.6975 9.86074 51.3336 9.86074C52.8898 9.86074 53.9805 10.732 54.0271 11.9756H52.677C52.6105 11.3438 52.0984 10.9514 51.2937 10.9514C50.5156 10.9514 49.9968 11.3305 49.9968 11.8825C49.9968 12.3148 50.3426 12.6074 51.0676 12.787L52.2447 13.0597C53.6546 13.3989 54.1867 13.9309 54.1867 14.9618C54.1867 16.2387 52.9962 17.1165 51.2804 17.1165C49.6244 17.1165 48.527 16.2586 48.414 14.9751H49.8372C49.9503 15.6468 50.469 16.0192 51.3469 16.0192C52.2115 16.0192 52.7435 15.6601 52.7435 15.0948C52.7435 14.6492 52.4775 14.4031 51.7459 14.2169L50.4956 13.911C49.232 13.605 48.5935 12.9466 48.5935 11.969Z" fill="#AFAFB6"/>
<path d="M4.04686 22.8712V31.0297H8.98281C11.7023 31.0297 13.2585 29.5363 13.2585 26.9426C13.2585 24.4117 11.608 22.8712 8.88849 22.8712H4.04686ZM4.04686 33.8749V42.5993H0.525667V19.9159H9.31292C13.9816 19.9159 16.8898 22.6197 16.8898 26.8482C16.8898 29.9136 15.2549 32.3973 12.4883 33.3247L17.5657 42.5993H13.5101L8.88849 33.8749H4.04686Z" fill="white"/>
<path d="M26.6127 42.9137C21.8811 42.9137 18.7686 39.6597 18.7686 34.3308C18.7686 29.0176 21.8968 25.7636 26.6127 25.7636C31.3285 25.7636 34.4567 29.0176 34.4567 34.3308C34.4567 39.6597 31.3443 42.9137 26.6127 42.9137ZM26.6127 40.1156C29.285 40.1156 30.9984 38.0092 30.9984 34.3308C30.9984 30.6681 29.2693 28.5617 26.6127 28.5617C23.956 28.5617 22.2269 30.6681 22.2269 34.3308C22.2269 38.0092 23.956 40.1156 26.6127 40.1156Z" fill="white"/>
<path d="M42.5448 40.1942C44.9184 40.1942 46.7734 38.5594 46.7734 36.4058V35.101L42.702 35.3526C40.6742 35.494 39.5266 36.39 39.5266 37.8048C39.5266 39.251 40.7213 40.1942 42.5448 40.1942ZM41.6016 42.8822C38.3634 42.8822 36.0998 40.8701 36.0998 37.8991C36.0998 35.0067 38.3162 33.2304 42.2461 33.0103L46.7734 32.7431V31.4698C46.7734 29.6306 45.5315 28.5302 43.4565 28.5302C41.4916 28.5302 40.2654 29.4734 39.9668 30.9511H36.76C36.9486 27.9643 39.4952 25.7636 43.5823 25.7636C47.5908 25.7636 50.1531 27.8857 50.1531 31.2026V42.5993H46.8991V39.8798H46.8205C45.8616 41.719 43.7709 42.8822 41.6016 42.8822Z" fill="white"/>
<path d="M52.8336 30.7467C52.8336 27.7914 55.443 25.7636 59.3101 25.7636C62.9884 25.7636 65.5665 27.8229 65.6765 30.7624H62.4854C62.3282 29.2691 61.1178 28.3416 59.2157 28.3416C57.3766 28.3416 56.1504 29.2376 56.1504 30.5424C56.1504 31.5641 56.9678 32.2558 58.6813 32.6802L61.4636 33.3247C64.7962 34.1264 66.0538 35.384 66.0538 37.8205C66.0538 40.8387 63.24 42.9137 59.1843 42.9137C55.2701 42.9137 52.6764 40.8858 52.4092 37.852H55.7732C56.0404 39.4396 57.2665 40.3199 59.3415 40.3199C61.385 40.3199 62.6426 39.4711 62.6426 38.1349C62.6426 37.0817 62.0138 36.5001 60.2847 36.0599L57.3294 35.3368C54.3427 34.6137 52.8336 33.0575 52.8336 30.7467Z" fill="white"/>
<path d="M69.3631 22.1481H72.7742V26.0623H75.9181V28.7503H72.7742V37.8677C72.7742 39.2982 73.403 39.9427 74.7863 39.9427C75.1321 39.9427 75.6823 39.9112 75.9024 39.8641V42.5521C75.5251 42.6464 74.7706 42.7093 74.0161 42.7093C70.6678 42.7093 69.3631 41.436 69.3631 38.245V28.7503H66.958V26.0623H69.3631V22.1481Z" fill="white"/>
<defs>
<clipPath id="clip0_75_97">
<rect width="40.8248" height="40.8248" fill="white" transform="translate(89.4844) rotate(15)"/>
</clipPath>
</defs>
</svg>
